<?xml version="1.0" encoding="UTF-8" standalone="no"?>
<!-- Created with Inkscape (http://www.inkscape.org/) -->
<svg
   xmlns:svg="http://www.w3.org/2000/svg"
   xmlns="http://www.w3.org/2000/svg"
   xmlns:inkscape="http://www.inkscape.org/namespaces/inkscape"
   version="1.0"
   width="100"
   height="100"
   id="svg2">
  <defs
     id="defs4">
    <filter
       id="filter8414">
      <feGaussianBlur
         id="feGaussianBlur8416"
         stdDeviation="0.8775"
         inkscape:collect="always" />
    </filter>
  </defs>
  <g
     transform="matrix(0.8,0,0,0.8,12,19.8)"
     id="g2392"
     style="opacity:0.3;fill:#000000;filter:url(#filter8414)">
    <path
       d="M 46.785714,62.78096 L 49.464286,74.592288 C 52.499988,87.813923 57.14287,92.75 65.892843,92.75 C 72.499987,92.75 75.714286,90.634537 83.928572,80.762383 C 87.142844,77.060326 87.678571,76.178883 92.321429,68.069614 L 86.785713,65.07271 C 85.000001,67.893326 84.464272,68.774768 81.785714,72.476827 C 76.607142,79.352076 73.571428,81.996404 70.35713,81.996404 C 66.25,81.996404 64.464273,78.118056 61.25,63.662403 L 57.857131,46.914998 L 65.714285,32.635632 C 70,24.702626 73.750001,20.824216 76.964285,20.824216 C 78.392845,20.824216 79.285715,21.529369 80,23.115966 C 81.607144,26.641825 82.857142,27.523268 86.071428,27.523268 C 91.607126,27.523268 95,23.821107 95,18.003599 C 95,11.8335 90.714272,7.25 84.821428,7.25 C 80,7.25 74.642844,9.7180386 70.892857,13.772675 C 67.321428,17.651021 67.142845,17.651035 61.071428,28.757287 L 55.892857,37.924286 L 53.928571,28.22842 C 50.892858,13.067534 46.964273,7.25 39.642858,7.25 C 35.714287,7.25 31.785701,9.54175 27.321428,14.477829 C 24.464287,17.651021 21.964272,21.176805 13.928572,32.635632 L 19.107144,36.33769 C 28.214272,23.468555 30.714286,20.824216 33.749986,20.824216 C 34.999987,20.824216 36.785714,22.058235 37.499999,23.468543 C 39.107129,26.289247 39.107143,26.289247 42.678559,43.741806 L 44.821428,53.966537 L 36.785714,68.069614 C 31.785715,77.060326 27.321416,81.996404 24.464287,81.996404 C 23.214286,81.996404 22.142845,80.762383 21.785715,78.470633 C 20.892857,73.710846 18.571415,71.595384 14.10713,71.595384 C 8.75,71.595384 5,75.826307 5,81.820114 C 5,88.342788 9.642857,92.75 16.785702,92.75 C 25.35713,92.75 33.750001,85.69846 41.428571,72.300537 L 46.785714,62.78096"
       id="path2394"
       style="fill:#000000" />
  </g>
  <g
     transform="matrix(0.8,0,0,0.8,10,17.8)"
     id="layer1">
    <path
       d="M 46.785714,62.78096 L 49.464286,74.592288 C 52.499988,87.813923 57.14287,92.75 65.892843,92.75 C 72.499987,92.75 75.714286,90.634537 83.928572,80.762383 C 87.142844,77.060326 87.678571,76.178883 92.321429,68.069614 L 86.785713,65.07271 C 85.000001,67.893326 84.464272,68.774768 81.785714,72.476827 C 76.607142,79.352076 73.571428,81.996404 70.35713,81.996404 C 66.25,81.996404 64.464273,78.118056 61.25,63.662403 L 57.857131,46.914998 L 65.714285,32.635632 C 70,24.702626 73.750001,20.824216 76.964285,20.824216 C 78.392845,20.824216 79.285715,21.529369 80,23.115966 C 81.607144,26.641825 82.857142,27.523268 86.071428,27.523268 C 91.607126,27.523268 95,23.821107 95,18.003599 C 95,11.8335 90.714272,7.25 84.821428,7.25 C 80,7.25 74.642844,9.7180386 70.892857,13.772675 C 67.321428,17.651021 67.142845,17.651035 61.071428,28.757287 L 55.892857,37.924286 L 53.928571,28.22842 C 50.892858,13.067534 46.964273,7.25 39.642858,7.25 C 35.714287,7.25 31.785701,9.54175 27.321428,14.477829 C 24.464287,17.651021 21.964272,21.176805 13.928572,32.635632 L 19.107144,36.33769 C 28.214272,23.468555 30.714286,20.824216 33.749986,20.824216 C 34.999987,20.824216 36.785714,22.058235 37.499999,23.468543 C 39.107129,26.289247 39.107143,26.289247 42.678559,43.741806 L 44.821428,53.966537 L 36.785714,68.069614 C 31.785715,77.060326 27.321416,81.996404 24.464287,81.996404 C 23.214286,81.996404 22.142845,80.762383 21.785715,78.470633 C 20.892857,73.710846 18.571415,71.595384 14.10713,71.595384 C 8.75,71.595384 5,75.826307 5,81.820114 C 5,88.342788 9.642857,92.75 16.785702,92.75 C 25.35713,92.75 33.750001,85.69846 41.428571,72.300537 L 46.785714,62.78096"
       id="text2595" />
  </g>
</svg>
