<?xml version="1.0" encoding="UTF-8" standalone="no"?>
<!-- Created with Inkscape (http://www.inkscape.org/) -->
<svg
   xmlns:svg="http://www.w3.org/2000/svg"
   xmlns="http://www.w3.org/2000/svg"
   xmlns:inkscape="http://www.inkscape.org/namespaces/inkscape"
   version="1.0"
   width="100"
   height="100"
   id="svg2">
  <defs
     id="defs4">
    <filter
       id="filter5549">
      <feGaussianBlur
         id="feGaussianBlur5551"
         stdDeviation="0.65769549"
         inkscape:collect="always" />
    </filter>
  </defs>
  <path
     d="M 38.407636,60.898348 C 39.950506,60.898348 41.353116,61.038609 42.755726,61.038609 C 66.179336,61.038609 79.083386,52.482661 79.083386,39.157856 C 79.083386,29.900622 72.631356,23.869379 61.690996,23.869379 C 53.275336,23.869379 44.298596,27.235655 37.145286,33.266881 C 26.765966,42.103334 21.295762,54.165819 21.295762,67.350363 C 21.295762,84.041434 30.553016,94 46.121996,94 C 54.537666,94 64.893086,90.34124 75.132146,82.346353 C 78.955406,79.062647 80.393806,77.475136 81.686806,74.888123 C 85.636436,66.985754 76.956306,64.1337 74.883236,68.602256 C 72.798666,73.095614 77.296356,72.953677 76.202586,74.682061 C 72.277856,80.88395 59.166286,83.480406 53.135066,83.480406 C 43.737566,83.480406 38.127106,77.028377 38.127106,65.106185 C 38.127106,63.843835 38.267376,62.44122 38.407636,60.898348 M 39.529726,55.007374 C 43.457036,39.157872 50.750626,30.882442 58.044206,30.882442 C 62.252036,30.882442 64.917006,33.68767 64.917006,38.035764 C 64.917006,46.170908 55.238966,54.30607 39.529726,55.007374"
     id="path2816"
     style="font-size:82.94399261px;font-style:normal;font-weight:normal;opacity:0.3;fill:#000000;fill-opacity:1;stroke:none;stroke-width:1px;stroke-linecap:butt;stroke-linejoin:miter;stroke-opacity:1;filter:url(#filter5549);font-family:Bitstream Vera Sans" />
  <path
     d="M 36.407632,58.898349 C 37.950507,58.898349 39.35312,59.03861 40.755731,59.03861 C 64.179334,59.03861 77.083391,50.482662 77.083391,37.157857 C 77.083391,27.900623 70.631362,21.86938 59.691001,21.86938 C 51.275332,21.86938 42.298598,25.235656 35.145284,31.266882 C 24.765962,40.103335 19.295762,52.16582 19.295762,65.350364 C 19.295762,82.041435 28.553018,92 44.121999,92 C 52.537667,92 62.893091,88.341238 73.132152,80.346354 C 76.955406,77.062648 78.393811,75.475137 79.686806,72.888124 C 83.636435,64.985755 74.956307,62.133701 72.883239,66.602257 C 70.798666,71.095615 75.296358,70.953678 74.20259,72.682062 C 70.277861,78.883951 57.16629,81.480407 51.135063,81.480407 C 41.73757,81.480407 36.127111,75.028378 36.127111,63.106186 C 36.127111,61.843836 36.267372,60.441221 36.407632,58.898349 M 37.529723,53.007375 C 41.457032,37.157873 48.750629,28.882443 56.044206,28.882443 C 60.252038,28.882443 62.917008,31.687671 62.917008,36.035765 C 62.917008,44.170909 53.238965,52.306071 37.529723,53.007375"
     id="text2668"
     style="font-size:82.94399261px;font-style:normal;font-weight:normal;fill:#000000;fill-opacity:1;stroke:none;stroke-width:1px;stroke-linecap:butt;stroke-linejoin:miter;stroke-opacity:1;font-family:Bitstream Vera Sans" />
</svg>
