<?xml version="1.0" encoding="UTF-8" standalone="no"?>
<!-- Created with Inkscape (http://www.inkscape.org/) -->
<svg
   xmlns:svg="http://www.w3.org/2000/svg"
   xmlns="http://www.w3.org/2000/svg"
   xmlns:inkscape="http://www.inkscape.org/namespaces/inkscape"
   version="1.0"
   width="100"
   height="100"
   id="svg2">
  <defs
     id="defs4">
    <filter
       id="filter3209">
      <feGaussianBlur
         id="feGaussianBlur3211"
         stdDeviation="0.74223032"
         inkscape:collect="always" />
    </filter>
  </defs>
  <path
     d="M 70.531307,30.04498 L 61.534577,30.04498 L 63.294807,23.10185 C 65.739567,13.420595 68.771087,8.531057 72.193747,8.531057 C 73.171657,8.531057 73.856187,9.020011 73.856187,9.802334 C 73.856187,9.997915 73.758397,10.291288 73.367237,10.878031 C 72.584917,12.051516 72.291537,12.931633 72.291537,13.909538 C 72.291537,16.54988 74.442937,18.701275 77.083277,18.701275 C 80.016987,18.701275 82.070597,16.54988 82.070597,13.518376 C 82.070597,8.726643 78.256757,5.695131 72.389327,5.695131 C 67.304227,5.695131 62.610267,7.846527 59.089815,11.660355 C 54.982616,16.158716 53.124588,20.168143 50.288665,30.04498 L 43.149954,30.04498 L 42.269839,34.152183 L 49.40855,34.152183 C 44.127865,57.426313 41.389724,69.650159 40.802981,72.486082 C 37.771477,86.95907 35.913449,90.9685 32.001831,90.9685 C 31.023926,90.9685 30.241601,90.47954 30.241601,89.8928 C 30.241601,89.69722 30.339391,89.403848 30.632763,89.012686 C 31.415086,87.936991 31.806249,86.763502 31.806249,85.687807 C 31.806249,83.340836 29.459274,80.993861 27.014512,80.993861 C 24.276379,80.993861 21.929403,83.438627 21.929403,86.274551 C 21.929403,90.96849 25.743241,94 31.610668,94 C 35.717868,94 39.336125,92.63093 42.36763,89.79501 C 46.279248,86.274554 48.9196,81.091641 52.146685,71.019224 C 54.493657,63.293777 55.56936,58.89317 60.850047,34.152183 L 69.651197,34.152183 L 70.531307,30.04498"
     id="path2387"
     style="font-size:97.79055786px;font-style:normal;font-weight:normal;opacity:0.3;fill:#000000;fill-opacity:1;stroke:none;stroke-width:1px;stroke-linecap:butt;stroke-linejoin:miter;stroke-opacity:1;filter:url(#filter3209);font-family:Bitstream Vera Sans;-inkscape-font-specification:Bitstream Vera Sans" />
  <path
     d="M 68.531307,28.044978 L 59.534577,28.044978 L 61.294807,21.101848 C 63.739567,11.420593 66.771087,6.531055 70.193747,6.531055 C 71.171657,6.531055 71.856187,7.020009 71.856187,7.802332 C 71.856187,7.997913 71.758397,8.291286 71.367237,8.878029 C 70.584917,10.051514 70.291537,10.931631 70.291537,11.909536 C 70.291537,14.549878 72.442937,16.701273 75.083277,16.701273 C 78.016987,16.701273 80.070597,14.549878 80.070597,11.518374 C 80.070597,6.726641 76.256757,3.695129 70.389327,3.695129 C 65.304227,3.695129 60.610267,5.846525 57.089815,9.660353 C 52.982616,14.158714 51.124588,18.168141 48.288665,28.044978 L 41.149954,28.044978 L 40.269839,32.152181 L 47.40855,32.152181 C 42.127865,55.426311 39.389724,67.650157 38.802981,70.48608 C 35.771477,84.959068 33.913449,88.968495 30.001831,88.968495 C 29.023926,88.968495 28.241601,88.479542 28.241601,87.892799 C 28.241601,87.697218 28.339391,87.403846 28.632763,87.012684 C 29.415086,85.936989 29.806249,84.7635 29.806249,83.687805 C 29.806249,81.340834 27.459274,78.993859 25.014512,78.993859 C 22.276379,78.993859 19.929403,81.438625 19.929403,84.274549 C 19.929403,88.968491 23.743241,92 29.610668,92 C 33.717868,92 37.336125,90.630932 40.36763,87.795009 C 44.279248,84.274552 46.9196,79.091639 50.146685,69.019222 C 52.493657,61.293775 53.56936,56.893168 58.850047,32.152181 L 67.651197,32.152181 L 68.531307,28.044978"
     id="text2382"
     style="font-size:97.79055786px;font-style:normal;font-weight:normal;fill:#000000;fill-opacity:1;stroke:none;stroke-width:1px;stroke-linecap:butt;stroke-linejoin:miter;stroke-opacity:1;font-family:Bitstream Vera Sans;-inkscape-font-specification:Bitstream Vera Sans" />
</svg>
